<svg width="678" height="678" viewBox="0 0 678 678" fill="none" xmlns="http://www.w3.org/2000/svg">
<path d="M410.664 195.664C429.655 195.721 447.852 203.29 461.281 216.719C474.71 230.148 482.279 248.345 482.336 267.336V410.664C482.279 429.655 474.71 447.852 461.281 461.281C447.852 474.71 429.655 482.279 410.664 482.336H267.336C248.345 482.279 230.148 474.71 216.719 461.281C203.29 447.852 195.721 429.655 195.664 410.664V267.336C195.721 248.345 203.29 230.148 216.719 216.719C230.148 203.29 248.345 195.721 267.336 195.664H410.664ZM410.664 167H267.336C212.15 167 167 212.15 167 267.336V410.664C167 465.85 212.15 511 267.336 511H410.664C465.85 511 511 465.85 511 410.664V267.336C511 212.15 465.85 167 410.664 167Z" fill="#E882E8"/>
<path d="M431.571 267.858C427.333 267.858 423.19 266.601 419.666 264.246C416.142 261.892 413.395 258.545 411.773 254.629C410.152 250.714 409.727 246.405 410.554 242.248C411.381 238.092 413.422 234.273 416.419 231.276C419.416 228.279 423.234 226.239 427.391 225.412C431.547 224.585 435.856 225.009 439.772 226.631C443.687 228.253 447.034 231 449.389 234.524C451.743 238.048 453 242.191 453 246.429C453.006 249.245 452.456 252.034 451.381 254.636C450.306 257.239 448.728 259.604 446.737 261.595C444.746 263.586 442.381 265.164 439.779 266.239C437.176 267.314 434.387 267.864 431.571 267.858ZM338.715 282.138C350.018 282.138 361.066 285.49 370.464 291.769C379.862 298.049 387.186 306.974 391.512 317.416C395.837 327.858 396.968 339.348 394.763 350.433C392.558 361.518 387.116 371.701 379.124 379.693C371.132 387.685 360.949 393.128 349.864 395.333C338.779 397.538 327.289 396.406 316.847 392.081C306.404 387.755 297.479 380.431 291.2 371.033C284.921 361.636 281.569 350.587 281.569 339.285C281.585 324.133 287.611 309.608 298.325 298.894C309.038 288.181 323.564 282.155 338.715 282.138ZM338.715 253.569C321.762 253.569 305.19 258.596 291.094 268.015C276.999 277.433 266.012 290.82 259.525 306.483C253.037 322.145 251.34 339.38 254.647 356.007C257.954 372.634 266.118 387.907 278.105 399.894C290.093 411.882 305.366 420.046 321.993 423.353C338.62 426.66 355.855 424.963 371.517 418.475C387.18 411.988 400.567 401.001 409.985 386.905C419.404 372.81 424.431 356.237 424.431 339.285C424.431 316.551 415.4 294.749 399.325 278.675C383.251 262.6 361.449 253.569 338.715 253.569Z" fill="#E882E8"/>
<circle cx="339" cy="339" r="326.5" stroke="#E882E8" stroke-width="25"/>
<rect width="678" height="678" stroke="white"/>
</svg>
