<svg width="678" height="675" viewBox="0 0 678 675" fill="none" xmlns="http://www.w3.org/2000/svg">
<g clip-path="url(#clip0)">
<path fill-rule="evenodd" clip-rule="evenodd" d="M566 337.862C566 212.582 464.357 111 339 111C213.643 111 112 212.582 112 337.862C112 451.091 194.997 544.945 303.531 561.98V403.46H245.879V337.862H303.531V287.882C303.531 231.034 337.429 199.608 389.274 199.608C414.113 199.608 440.096 204.044 440.096 204.044V259.878H411.458C383.275 259.878 374.459 277.359 374.459 295.326V337.862H437.411L427.358 403.46H374.469V562C483.003 544.975 566 451.121 566 337.862Z" fill="#E882E8"/>
<circle cx="339" cy="339" r="326.5" stroke="#E882E8" stroke-width="25"/>
</g>
<defs>
<clipPath id="clip0">
<rect width="678" height="674.996" fill="white"/>
</clipPath>
</defs>
</svg>
