<svg width="679" height="679" viewBox="0 0 679 679" fill="none" xmlns="http://www.w3.org/2000/svg">
<path d="M513 233.822C500.021 239.465 486.289 243.183 472.237 244.858C487.005 236.205 498.11 222.457 503.471 206.194C489.509 214.364 474.26 220.096 458.375 223.146C451.687 216.131 443.642 210.55 434.731 206.743C425.82 202.936 416.229 200.982 406.54 201C367.312 201 335.567 232.307 335.567 270.899C335.539 276.267 336.154 281.619 337.398 286.841C309.269 285.522 281.724 278.341 256.528 265.758C231.33 253.175 209.035 235.467 191.069 213.768C184.765 224.402 181.432 236.534 181.417 248.898C181.417 273.135 194.053 294.559 213.133 307.111C201.829 306.843 190.756 303.848 180.854 298.383V299.248C180.854 333.152 205.363 361.357 237.8 367.777C231.7 369.404 225.415 370.229 219.102 370.229C214.622 370.237 210.153 369.802 205.759 368.931C214.777 396.703 241.022 416.901 272.112 417.478C246.85 436.961 215.834 447.491 183.94 447.414C178.278 447.405 172.622 447.068 167 446.404C199.446 467.137 237.162 478.104 275.658 477.999C406.389 477.999 477.809 371.456 477.809 279.05C477.809 276.021 477.73 272.991 477.585 270.034C491.448 260.166 503.44 247.903 513 233.822Z" fill="white"/>
<circle cx="339" cy="339" r="326.5" stroke="white" stroke-width="25"/>
</svg>
